<?xml version="1.0" encoding="UTF-8" standalone="no"?>
<!DOCTYPE svg PUBLIC "-//W3C//DTD SVG 1.1//EN" "http://www.w3.org/Graphics/SVG/1.1/DTD/svg11.dtd">
<svg width="100%" height="100%" viewBox="0 0 1634 766" version="1.1" xmlns="http://www.w3.org/2000/svg" xmlns:xlink="http://www.w3.org/1999/xlink" xml:space="preserve" xmlns:serif="http://www.serif.com/" style="fill-rule:evenodd;clip-rule:evenodd;stroke-linecap:square;stroke-miterlimit:1.5;">
    <g id="Artboard1" transform="matrix(0.954043,0,0,0.864212,-978.46,-443.177)">
        <rect x="1025.59" y="512.81" width="1712.28" height="886.037" style="fill:none;"/>
        <g transform="matrix(1,0,0,1,0.507305,4.34091)">
            <g transform="matrix(1.04817,0,0,1.15712,1148.52,78.756)">
                <path d="M455.206,818.815L455.206,1080L194.021,1080L194.021,818.815L455.206,818.815ZM441.206,832.815L208.021,832.815L208.021,1066L441.206,1066L441.206,832.815Z"/>
            </g>
            <g transform="matrix(1.04817,0,0,1.15712,1933.28,78.756)">
                <path d="M455.206,818.815L455.206,1080L194.021,1080L194.021,818.815L455.206,818.815ZM441.206,832.815L208.021,832.815L208.021,1066L441.206,1066L441.206,832.815Z"/>
            </g>
            <g transform="matrix(1.04817,0,0,1.15712,1409.86,78.756)">
                <path d="M455.206,818.815L455.206,1080L194.021,1080L194.021,818.815L455.206,818.815ZM441.206,832.815L208.021,832.815L208.021,1066L441.206,1066L441.206,832.815Z"/>
            </g>
            <g transform="matrix(1.04817,0,0,1.15712,2194.62,78.756)">
                <path d="M455.206,818.815L455.206,1080L194.021,1080L194.021,818.815L455.206,818.815ZM441.206,832.815L208.021,832.815L208.021,1066L441.206,1066L441.206,832.815Z"/>
            </g>
            <g transform="matrix(1.04817,0,0,1.15712,887.332,78.756)">
                <path d="M455.206,818.815L455.206,1080L194.021,1080L194.021,818.815L455.206,818.815ZM441.206,832.815L208.021,832.815L208.021,1066L441.206,1066L441.206,832.815Z"/>
            </g>
            <g transform="matrix(1.04817,0,0,1.15712,1672.09,78.756)">
                <path d="M455.206,818.815L455.206,1080L194.021,1080L194.021,818.815L455.206,818.815ZM441.206,832.815L208.021,832.815L208.021,1066L441.206,1066L441.206,832.815Z"/>
            </g>
            <g transform="matrix(1.04817,0,0,1.15712,887.332,78.756)">
                <path d="M455.206,818.815L455.206,1080L194.021,1080L194.021,818.815L455.206,818.815ZM441.206,832.815L208.021,832.815L208.021,1066L441.206,1066L441.206,832.815Z"/>
            </g>
            <g transform="matrix(1.04817,0,0,1.15712,1672.09,78.756)">
                <path d="M455.206,818.815L455.206,1080L194.021,1080L194.021,818.815L455.206,818.815ZM441.206,832.815L208.021,832.815L208.021,1066L441.206,1066L441.206,832.815Z"/>
            </g>
            <g transform="matrix(1.04817,0,0,1.15712,-111.029,-68.6974)">
                <g transform="matrix(144.468,0,0,144.468,1346.72,1128.76)">
                </g>
                <text x="1218.26px" y="1128.76px" style="font-family:'ArialMT', 'Arial', sans-serif;font-size:144.468px;">-4</text>
            </g>
            <g transform="matrix(1.04817,0,0,1.15712,147.69,-68.6974)">
                <g transform="matrix(144.468,0,0,144.468,1346.72,1128.76)">
                </g>
                <text x="1218.26px" y="1128.76px" style="font-family:'ArialMT', 'Arial', sans-serif;font-size:144.468px;">-1</text>
            </g>
            <g transform="matrix(1.04817,0,0,1.15712,150.522,-611.922)">
                <g transform="matrix(144.468,0,0,144.468,1298.54,1128.76)">
                </g>
                <text x="1266.44px" y="1128.76px" style="font-family:'ArialMT', 'Arial', sans-serif;font-size:144.468px;">i</text>
            </g>
            <g transform="matrix(1.04817,0,0,1.15712,405.351,-68.6974)">
                <g transform="matrix(144.468,0,0,144.468,1346.72,1128.76)">
                </g>
                <text x="1218.26px" y="1128.76px" style="font-family:'ArialMT', 'Arial', sans-serif;font-size:144.468px;">-1</text>
            </g>
            <g transform="matrix(1.04817,0,0,1.15712,666.112,-68.6974)">
                <g transform="matrix(144.468,0,0,144.468,1322.66,1128.76)">
                </g>
                <text x="1242.32px" y="1128.76px" style="font-family:'ArialMT', 'Arial', sans-serif;font-size:144.468px;">0</text>
            </g>
            <g transform="matrix(1.04817,0,0,1.15712,925.108,-68.6974)">
                <g transform="matrix(144.468,0,0,144.468,1322.66,1128.76)">
                </g>
                <text x="1242.32px" y="1128.76px" style="font-family:'ArialMT', 'Arial', sans-serif;font-size:144.468px;">1</text>
            </g>
            <g transform="matrix(1.04817,0,0,1.15712,1187.68,-68.6974)">
                <g transform="matrix(144.468,0,0,144.468,1322.66,1128.76)">
                </g>
                <text x="1242.32px" y="1128.76px" style="font-family:'ArialMT', 'Arial', sans-serif;font-size:144.468px;">2</text>
            </g>
            <g transform="matrix(1.04817,0,0,0.604934,-106.4,314.407)">
                <g transform="matrix(1,-0,-0,1.91281,1079.49,320.799)">
                    <path d="M468.361,354.904L447.361,396.904L426.361,354.904L468.361,354.904Z"/>
                    <path d="M447.361,209.015L447.361,363.304" style="fill:none;stroke:black;stroke-width:14px;"/>
                </g>
            </g>
        </g>
    </g>
</svg>
